{"glyphs":{":":{"x_min":0,"x_max":201,"ha":201,"o":"m 101 330 q 81 330 68 344 q 55 358 55 376 q 55 395 68 408 q 81 422 101 422 q 119 422 132 408 q 146 395 146 376 q 146 358 132 344 q 119 330 101 330 z m 101 -6 q 81 -6 68 8 q 55 22 55 40 q 55 60 68 74 q 81 87 101 87 q 119 87 132 74 q 146 60 146 40 q 146 22 132 8 q 119 -6 101 -6 z"},"$":{"x_min":0,"x_max":498,"ha":498,"o":"m 262 -52 q 253 -52 246 -46 q 239 -40 239 -32 l 239 3 q 176 4 132 23 q 87 42 63 68 q 39 94 39 111 q 39 119 44 128 q 48 137 55 142 q 62 148 69 148 q 78 148 88 136 q 99 124 116 108 q 134 92 163 80 q 192 67 239 66 l 239 357 q 206 369 174 382 q 142 395 116 415 q 89 435 73 466 q 57 498 57 546 q 57 593 73 625 q 89 657 116 676 q 142 696 174 706 q 207 716 239 718 l 239 749 q 239 757 246 762 q 253 768 262 768 q 271 768 278 762 q 285 757 285 749 l 285 720 q 313 719 340 714 q 366 709 388 701 q 410 693 424 682 q 437 672 437 659 q 437 653 434 644 q 430 636 424 629 q 417 622 408 622 q 400 622 386 630 q 371 639 347 648 q 323 657 285 659 l 285 411 q 316 400 346 385 q 377 370 402 347 q 426 324 440 289 q 455 254 455 202 q 455 111 408 63 q 360 15 285 6 l 285 -32 q 285 -40 278 -46 q 271 -52 262 -52 z m 283 68 q 336 76 364 108 q 392 141 392 196 q 392 240 377 267 q 362 294 338 312 q 313 329 283 341 z m 242 426 l 242 658 q 210 656 182 645 q 155 634 138 612 q 121 590 121 552 q 121 513 138 490 q 154 466 182 452 q 209 438 242 426 z"},"?":{"x_min":0,"x_max":401,"ha":401,"o":"m 171 165 q 159 165 152 172 q 144 178 144 194 q 144 250 150 283 q 156 316 166 335 q 176 354 187 368 q 203 385 224 402 q 244 420 264 442 q 283 465 296 494 q 309 522 309 561 q 309 621 274 655 q 239 689 174 689 q 141 689 120 682 q 100 674 88 664 q 76 655 68 648 q 59 640 49 640 q 41 640 32 647 q 24 654 24 667 q 24 683 44 701 q 64 719 99 732 q 134 744 177 744 q 240 744 282 720 q 324 696 345 656 q 366 616 366 566 q 366 519 351 484 q 336 449 314 422 q 291 396 268 376 q 246 357 233 340 q 216 322 209 301 q 202 280 200 253 q 198 226 198 188 q 198 177 192 171 q 185 165 171 165 z m 171 -6 q 151 -6 138 8 q 125 22 125 40 q 125 60 138 74 q 152 87 171 87 q 190 87 204 74 q 217 60 217 40 q 217 22 204 8 q 190 -6 171 -6 z"},"<":{"x_min":0,"x_max":403,"ha":403,"o":"m 324 68 q 318 68 312 72 l 43 250 q 35 254 31 262 q 27 269 27 277 q 27 285 32 293 q 36 301 43 305 l 312 483 q 318 487 324 487 q 335 487 345 478 q 355 469 355 456 q 355 441 344 435 l 106 277 l 344 120 q 355 114 355 99 q 355 86 345 77 q 335 68 324 68 z"},"'":{"x_min":0,"x_max":140,"ha":140,"o":"m 70 576 q 58 576 53 583 q 48 590 48 599 l 38 746 q 38 756 48 762 q 59 768 70 768 q 81 768 92 762 q 102 756 102 746 l 92 599 q 92 590 87 583 q 82 576 70 576 z"},"=":{"x_min":0,"x_max":435,"ha":435,"o":"m 91 340 q 81 340 74 348 q 67 357 67 369 q 67 382 74 390 q 81 398 91 398 l 344 398 q 353 398 361 390 q 369 382 369 369 q 369 357 361 348 q 353 340 344 340 z m 91 137 q 81 137 74 146 q 67 154 67 166 q 67 179 74 187 q 81 195 91 195 l 344 195 q 353 195 361 187 q 369 179 369 166 q 369 154 361 146 q 353 137 344 137 z"},"a":{"x_min":0,"x_max":438,"ha":438,"o":"m 167 -7 q 111 -7 71 26 q 31 58 31 125 q 31 180 60 210 q 90 239 142 250 q 195 262 264 262 l 315 262 l 315 286 q 315 318 304 350 q 292 381 266 402 q 241 422 197 422 q 164 422 143 415 q 122 408 110 400 q 98 393 90 393 q 78 393 71 405 q 64 417 64 428 q 64 441 84 452 q 105 464 136 472 q 168 479 199 479 q 266 479 306 452 q 345 424 362 380 q 380 336 380 286 l 380 26 q 380 15 372 8 q 363 0 348 0 q 336 0 327 8 q 318 15 318 26 l 318 70 q 292 41 255 17 q 218 -7 167 -7 z m 183 48 q 216 48 246 65 q 276 82 296 106 q 315 131 315 153 l 315 217 l 273 217 q 228 217 188 212 q 147 206 122 188 q 96 170 96 131 q 96 88 122 68 q 147 48 183 48 z"},"L":{"x_min":0,"x_max":462,"ha":462,"o":"m 106 0 q 95 0 86 6 q 76 13 76 26 l 76 707 q 76 720 86 726 q 96 731 109 731 q 121 731 132 726 q 142 720 142 707 l 142 61 l 427 61 q 439 61 444 52 q 449 42 449 31 q 449 19 444 10 q 439 0 427 0 z"},"3":{"x_min":0,"x_max":488,"ha":488,"o":"m 236 -6 q 183 -6 144 10 q 105 25 79 49 q 53 73 41 102 q 29 131 29 159 q 29 180 36 187 q 44 194 59 194 q 80 194 87 186 q 94 179 94 166 q 94 150 100 130 q 107 111 123 94 q 139 77 166 66 q 193 55 234 55 q 305 55 342 92 q 379 128 379 205 l 379 224 q 379 293 340 325 q 301 357 236 357 q 223 357 217 366 q 211 374 211 385 q 211 396 217 405 q 223 414 236 414 q 276 414 304 426 q 332 437 346 465 q 361 493 361 542 q 361 607 332 639 q 303 671 240 671 q 201 671 176 660 q 150 650 136 634 q 122 617 117 599 q 112 581 112 564 q 112 550 104 541 q 97 532 80 532 q 66 532 59 535 q 52 538 49 547 q 46 556 46 570 q 46 591 54 618 q 63 646 84 672 q 106 697 144 714 q 182 731 242 731 q 296 731 337 714 q 378 697 402 658 q 425 620 425 555 q 425 487 402 445 q 378 403 343 386 q 387 368 416 329 q 445 290 445 224 l 445 205 q 445 128 417 82 q 389 36 342 15 q 294 -6 236 -6 z"},";":{"x_min":0,"x_max":203,"ha":203,"o":"m 87 -84 q 79 -84 71 -79 q 63 -74 63 -65 q 63 -59 65 -55 l 84 -3 q 71 2 62 14 q 54 26 54 40 q 54 60 67 74 q 80 87 99 87 q 117 87 132 74 q 146 62 146 40 q 146 37 145 32 q 144 27 140 16 q 137 5 129 -16 q 121 -37 107 -71 q 104 -78 98 -81 q 93 -84 87 -84 z m 103 330 q 82 330 69 344 q 56 358 56 376 q 56 395 69 408 q 82 422 103 422 q 121 422 134 408 q 148 395 148 376 q 148 358 134 344 q 121 330 103 330 z"},"J":{"x_min":0,"x_max":509,"ha":509,"o":"m 231 -6 q 167 -6 120 16 q 73 39 47 79 q 21 119 21 170 q 21 190 30 197 q 38 204 54 204 q 66 204 76 198 q 87 192 87 178 q 88 141 105 113 q 122 85 154 70 q 186 55 229 55 q 296 55 334 92 q 371 130 371 208 l 371 670 l 230 670 q 219 670 212 680 q 206 689 206 702 q 206 712 212 722 q 217 731 230 731 l 407 731 q 418 731 428 724 q 437 718 437 706 l 437 208 q 437 130 410 83 q 382 36 336 15 q 289 -6 231 -6 z"},"V":{"x_min":0,"x_max":537,"ha":537,"o":"m 269 -6 q 256 -6 244 0 q 233 6 230 18 l 20 696 q 19 699 19 703 q 19 712 25 718 q 31 724 40 728 q 49 731 58 731 q 67 731 74 727 q 81 723 84 714 l 269 100 l 453 714 q 456 723 462 727 q 469 731 478 731 q 487 731 496 727 q 505 723 512 717 q 518 711 518 702 q 518 701 518 700 q 517 698 516 696 l 309 18 q 305 6 294 0 q 282 -6 269 -6 z"},"\"":{"x_min":0,"x_max":270,"ha":270,"o":"m 200 576 q 188 576 183 583 q 178 590 178 599 l 168 746 q 168 756 178 762 q 189 768 200 768 q 211 768 222 762 q 232 756 232 746 l 222 599 q 222 590 217 583 q 212 576 200 576 z m 70 576 q 58 576 53 583 q 48 590 48 599 l 38 746 q 38 756 48 762 q 59 768 70 768 q 81 768 92 762 q 102 756 102 746 l 92 599 q 92 590 87 583 q 82 576 70 576 z"},"7":{"x_min":0,"x_max":460,"ha":460,"o":"m 115 -1 q 105 -1 96 2 q 86 6 80 13 q 75 20 75 30 q 75 37 79 44 l 378 616 l 378 670 l 94 670 l 94 555 q 94 545 84 538 q 74 530 61 530 q 48 530 38 538 q 28 545 28 555 l 28 706 q 28 715 38 723 q 47 731 58 731 l 413 731 q 424 731 434 723 q 444 715 444 706 l 444 620 q 444 614 442 606 q 439 598 434 591 l 137 11 q 131 -1 115 -1 z"},"S":{"x_min":0,"x_max":494,"ha":494,"o":"m 241 -7 q 177 -7 131 12 q 85 32 60 58 q 36 83 36 101 q 36 109 40 118 q 45 127 52 132 q 59 138 66 138 q 76 138 86 126 q 97 113 114 96 q 132 80 161 68 q 190 55 237 55 q 284 55 318 70 q 351 86 368 116 q 386 147 386 193 q 386 241 368 270 q 350 300 320 318 q 291 337 256 350 q 221 364 186 378 q 150 391 120 412 q 91 432 72 466 q 54 499 54 551 q 54 606 74 641 q 94 676 126 696 q 157 716 194 724 q 231 733 266 733 q 294 733 324 728 q 353 724 378 716 q 403 708 418 697 q 434 686 434 672 q 434 665 430 656 q 427 648 421 642 q 415 635 405 635 q 396 635 380 644 q 364 654 336 664 q 309 673 265 673 q 229 673 196 662 q 162 652 141 627 q 120 602 120 557 q 120 517 138 492 q 157 468 186 453 q 216 438 251 426 q 286 413 322 398 q 357 382 386 358 q 416 335 434 297 q 452 259 452 199 q 452 128 425 82 q 398 37 350 15 q 303 -7 241 -7 z"},"}":{"x_min":0,"x_max":309,"ha":309,"o":"m 53 -20 q 38 -20 28 -12 q 18 -4 18 10 q 18 16 20 22 q 22 29 28 34 q 33 39 43 39 q 59 39 81 44 q 103 48 124 59 q 145 70 159 89 q 173 108 173 136 q 173 149 170 178 q 167 208 163 242 q 159 276 156 304 q 153 331 153 340 q 153 358 166 370 q 178 381 188 384 q 178 386 166 398 q 153 411 153 429 q 153 436 156 458 q 159 481 163 509 q 167 537 170 561 q 173 585 173 596 q 173 628 155 654 q 137 679 107 694 q 77 709 43 709 q 31 709 24 718 q 18 728 18 738 q 18 750 26 759 q 34 768 53 768 q 90 768 124 754 q 157 741 183 718 q 209 695 224 666 q 239 636 239 604 q 239 592 236 567 q 233 542 229 514 q 225 486 222 464 q 219 441 219 434 q 219 421 228 418 q 237 414 249 412 q 261 411 270 406 q 279 400 279 385 q 279 369 270 364 q 261 358 249 356 q 237 355 228 352 q 219 349 219 336 q 219 329 221 310 q 223 291 226 265 q 229 239 232 212 q 235 186 237 164 q 239 143 239 133 q 239 88 213 53 q 187 18 145 -1 q 103 -20 53 -20 z"},"Z":{"x_min":0,"x_max":482,"ha":482,"o":"m 47 0 q 36 0 30 6 q 23 13 23 23 q 23 34 29 46 l 362 670 l 60 670 q 48 670 42 680 q 35 689 35 701 q 35 712 41 722 q 47 731 60 731 l 423 731 q 436 731 442 725 q 448 719 448 710 q 448 698 440 684 l 108 61 l 435 61 q 448 61 454 52 q 460 42 460 31 q 460 19 454 10 q 448 0 435 0 z"},"x":{"x_min":0,"x_max":409,"ha":409,"o":"m 63 -7 q 56 -7 47 -2 q 38 3 32 10 q 25 18 25 25 q 25 33 29 39 l 162 239 l 32 433 q 31 436 29 440 q 27 443 27 446 q 27 454 34 462 q 40 469 49 474 q 58 479 67 479 q 72 479 78 477 q 83 475 87 469 l 205 286 l 324 469 q 327 474 332 476 q 338 479 343 479 q 352 479 361 474 q 370 470 376 462 q 383 455 383 446 q 383 440 378 433 l 247 239 l 381 39 q 383 37 384 33 q 385 29 385 25 q 385 18 379 10 q 373 3 364 -2 q 355 -7 346 -7 q 341 -7 336 -4 q 330 -2 327 3 l 205 190 l 84 3 q 80 -2 74 -4 q 69 -7 63 -7 z"},")":{"x_min":0,"x_max":298,"ha":298,"o":"m 52 -20 q 34 -20 26 -12 q 19 -3 19 10 q 19 20 24 30 q 28 40 43 40 q 72 40 101 48 q 130 57 150 82 q 171 106 171 151 l 171 584 q 171 614 156 642 q 141 671 112 690 q 84 708 43 708 q 33 708 26 717 q 19 726 19 739 q 19 751 26 760 q 34 768 51 768 q 89 768 122 754 q 156 739 182 714 q 208 688 222 655 q 237 622 237 584 l 237 151 q 237 109 222 77 q 208 45 182 24 q 157 2 124 -9 q 90 -20 52 -20 z"},"&":{"x_min":0,"x_max":610,"ha":610,"o":"m 265 -10 q 192 -10 141 20 q 90 49 62 98 q 35 146 35 203 q 35 254 55 293 q 75 332 106 360 q 138 387 171 402 q 141 438 116 480 q 90 521 90 578 q 90 633 115 671 q 140 709 181 728 q 222 748 271 748 q 326 748 362 730 q 398 712 416 689 q 434 666 434 652 q 434 640 425 631 q 416 622 403 622 q 393 622 384 632 q 375 643 362 658 q 350 672 329 682 q 308 693 274 693 q 220 693 189 660 q 158 628 158 574 q 158 539 172 510 q 185 480 206 454 q 228 427 251 401 l 455 179 q 475 227 481 277 q 487 327 488 361 q 489 375 495 382 q 501 388 518 388 q 534 388 540 380 q 546 371 546 353 q 546 333 542 297 q 538 261 528 218 q 518 175 496 134 l 588 35 q 591 32 592 28 q 594 24 594 21 q 594 10 584 2 q 575 -7 564 -7 q 559 -7 554 -5 q 550 -3 545 2 l 464 89 q 433 46 384 18 q 335 -10 265 -10 z m 273 50 q 329 50 365 73 q 401 96 424 131 l 209 360 q 186 348 162 328 q 137 309 120 280 q 102 252 102 209 q 102 167 122 130 q 142 94 180 72 q 219 50 273 50 z"},"_":{"x_min":0,"x_max":335,"ha":335,"o":"m 8 -58 q -2 -58 -9 -50 q -16 -42 -16 -29 q -16 -17 -9 -8 q -2 0 8 0 l 328 0 q 338 0 346 -8 q 354 -17 354 -29 q 354 -42 346 -50 q 338 -58 328 -58 z"},"v":{"x_min":0,"x_max":420,"ha":420,"o":"m 210 -8 q 199 -8 191 -4 q 183 0 180 8 l 19 430 q 18 432 16 437 q 15 442 15 445 q 15 453 21 460 q 27 467 36 471 q 46 475 54 475 q 62 475 68 472 q 75 468 78 460 l 210 100 l 342 456 q 344 464 349 470 q 354 475 365 475 q 373 475 382 471 q 391 467 398 460 q 405 454 405 446 q 405 441 404 437 q 403 433 401 430 l 240 8 q 237 1 228 -4 q 220 -8 210 -8 z"},"O":{"x_min":0,"x_max":553,"ha":553,"o":"m 276 -6 q 218 -6 171 15 q 124 36 96 83 q 69 130 69 208 l 69 518 q 69 595 96 642 q 124 689 170 710 q 217 731 276 731 q 335 731 382 710 q 429 689 457 642 q 485 595 485 518 l 485 208 q 485 130 457 83 q 429 36 382 15 q 335 -6 276 -6 z m 276 55 q 343 55 381 92 q 419 129 419 208 l 419 518 q 419 596 381 633 q 343 670 276 670 q 209 670 172 633 q 135 596 135 518 l 135 208 q 135 129 172 92 q 209 55 276 55 z"},"(":{"x_min":0,"x_max":298,"ha":298,"o":"m 247 -20 q 208 -20 174 -9 q 141 2 116 24 q 90 45 76 77 q 61 109 61 151 l 61 584 q 61 622 76 655 q 90 688 116 714 q 142 739 176 754 q 209 768 248 768 q 265 768 272 760 q 280 751 280 739 q 280 726 273 717 q 266 708 255 708 q 214 708 186 690 q 157 671 142 642 q 127 614 127 584 l 127 151 q 127 106 148 82 q 168 57 198 48 q 227 40 255 40 q 270 40 275 30 q 280 20 280 10 q 280 -3 272 -12 q 264 -20 247 -20 z"},"C":{"x_min":0,"x_max":525,"ha":525,"o":"m 276 -6 q 220 -6 172 15 q 125 36 97 83 q 69 130 69 208 l 69 518 q 69 595 98 642 q 126 689 174 710 q 221 731 278 731 q 344 731 390 708 q 436 685 460 647 q 485 609 485 564 q 485 540 476 532 q 468 524 452 524 q 434 524 426 532 q 419 539 419 549 q 418 565 412 586 q 407 607 392 626 q 378 645 350 658 q 323 670 279 670 q 209 670 172 633 q 135 596 135 518 l 135 208 q 135 129 172 92 q 210 55 282 55 q 327 55 353 68 q 379 80 392 98 q 406 117 411 138 q 416 160 419 178 q 420 191 428 198 q 436 204 451 204 q 468 204 476 196 q 485 187 485 163 q 485 118 460 80 q 435 41 388 18 q 342 -6 276 -6 z"},"W":{"x_min":0,"x_max":784,"ha":784,"o":"m 258 -6 q 245 -6 234 0 q 223 6 219 18 l 22 696 q 20 700 20 704 q 20 712 26 718 q 32 725 41 728 q 50 731 58 731 q 67 731 75 727 q 83 723 85 714 l 258 100 l 357 473 q 361 486 371 491 q 381 496 393 496 q 405 496 414 491 q 423 486 426 473 l 527 100 l 699 714 q 702 723 710 727 q 717 731 726 731 q 736 731 744 728 q 752 725 758 718 q 764 712 764 704 q 764 700 763 696 l 567 18 q 563 6 552 0 q 541 -6 527 -6 q 514 -6 502 0 q 491 6 488 18 l 393 371 l 298 18 q 295 6 284 0 q 272 -6 258 -6 z"},"A":{"x_min":0,"x_max":538,"ha":538,"o":"m 58 0 q 50 0 41 4 q 32 7 26 14 q 20 20 20 28 q 20 32 21 35 l 230 714 q 234 726 245 732 q 256 737 269 737 q 283 737 294 731 q 306 725 309 714 l 517 35 q 518 32 518 29 q 518 21 512 14 q 506 8 497 4 q 488 0 478 0 q 470 0 463 4 q 456 8 454 17 l 407 171 l 131 171 l 85 17 q 82 8 75 4 q 68 0 58 0 z m 147 228 l 390 228 l 269 631 z"},"f":{"x_min":0,"x_max":305,"ha":305,"o":"m 94 0 q 81 0 72 7 q 63 14 63 25 l 63 579 q 63 630 88 672 q 112 713 152 738 q 193 763 241 763 l 266 763 q 280 763 287 754 q 294 745 294 733 q 294 722 287 713 q 280 704 266 704 l 249 704 q 215 704 188 688 q 160 671 144 644 q 129 616 128 584 l 128 473 l 271 473 q 282 473 288 465 q 294 457 294 447 q 294 436 288 428 q 282 419 271 419 l 128 419 l 128 25 q 128 14 118 7 q 108 0 94 0 z"},"Q":{"x_min":0,"x_max":553,"ha":553,"o":"m 277 -109 q 267 -109 259 -102 q 251 -96 251 -83 l 251 -4 q 199 0 158 22 q 116 44 92 90 q 69 135 69 208 l 69 518 q 69 596 96 642 q 124 689 171 710 q 218 731 276 731 q 335 731 382 710 q 429 689 457 642 q 485 596 485 518 l 485 208 q 485 135 461 90 q 437 44 396 22 q 355 0 302 -4 l 302 -83 q 302 -96 294 -102 q 287 -109 277 -109 z m 251 58 l 251 132 q 251 145 259 150 q 267 156 277 156 q 287 156 294 150 q 302 145 302 132 l 302 58 q 357 65 388 102 q 419 138 419 208 l 419 518 q 419 596 381 633 q 343 670 276 670 q 209 670 172 633 q 135 596 135 518 l 135 208 q 135 138 166 101 q 196 64 251 58 z"},"w":{"x_min":0,"x_max":666,"ha":666,"o":"m 202 -8 q 192 -8 186 -4 q 179 1 175 12 l 19 431 q 18 434 16 438 q 15 443 15 446 q 15 454 21 460 q 27 467 36 471 q 45 475 54 475 q 61 475 68 471 q 75 467 77 460 l 205 104 l 308 429 q 311 438 318 442 q 324 446 334 446 q 343 446 350 442 q 357 438 360 429 l 459 100 l 590 460 q 594 475 612 475 q 621 475 630 472 q 639 468 645 462 q 651 455 651 446 q 651 443 650 438 q 648 433 647 431 l 491 8 q 488 -1 480 -4 q 473 -8 465 -8 q 455 -8 448 -4 q 442 0 438 7 l 334 332 l 231 12 q 228 2 220 -3 q 212 -8 202 -8 z"},"-":{"x_min":0,"x_max":400,"ha":400,"o":"m 70 212 q 59 212 52 220 q 45 228 45 240 q 45 253 52 262 q 59 270 70 270 l 330 270 q 340 270 348 262 q 355 253 355 240 q 355 228 348 220 q 340 212 330 212 z"},"E":{"x_min":0,"x_max":508,"ha":508,"o":"m 106 0 q 95 0 86 6 q 76 13 76 26 l 76 706 q 76 718 86 724 q 95 731 106 731 l 462 731 q 475 731 481 722 q 487 712 487 702 q 487 689 480 680 q 474 670 462 670 l 142 670 l 142 395 l 299 395 q 311 395 318 386 q 324 377 324 365 q 324 356 318 347 q 312 338 299 338 l 142 338 l 142 61 l 462 61 q 474 61 480 52 q 487 43 487 30 q 487 19 481 10 q 475 0 462 0 z"},"s":{"x_min":0,"x_max":387,"ha":387,"o":"m 191 -7 q 144 -7 109 5 q 74 17 54 34 q 34 50 34 65 q 34 72 37 78 q 40 85 46 90 q 51 95 57 95 q 68 95 82 84 q 95 72 120 60 q 144 48 189 48 q 246 48 269 70 q 292 91 292 119 q 292 152 274 170 q 257 189 228 200 q 200 210 168 218 q 137 227 108 240 q 80 254 62 278 q 45 302 45 343 q 45 375 61 406 q 77 438 112 458 q 146 479 203 479 q 236 479 267 472 q 298 465 318 454 q 337 442 337 430 q 337 425 334 417 q 330 409 324 402 q 318 396 310 396 q 302 396 288 404 q 275 411 254 418 q 233 424 204 424 q 168 424 146 411 q 124 398 114 380 q 104 363 104 346 q 104 317 122 302 q 140 287 168 278 q 197 268 228 260 q 260 251 288 236 q 317 221 334 194 q 352 167 352 122 q 352 63 310 28 q 268 -7 191 -7 z"},">":{"x_min":0,"x_max":403,"ha":403,"o":"m 79 68 q 69 68 58 77 q 48 86 48 99 q 48 114 59 120 l 297 277 l 59 435 q 48 441 48 456 q 48 469 58 478 q 69 487 79 487 q 86 487 91 483 l 361 305 q 367 301 372 293 q 376 285 376 277 q 376 269 372 262 q 368 254 361 250 l 91 72 q 86 68 79 68 z"},"l":{"x_min":0,"x_max":208,"ha":208,"o":"m 103 0 q 90 0 80 8 q 71 16 71 26 l 71 739 q 71 750 80 756 q 90 763 103 763 q 117 763 126 756 q 136 750 136 739 l 136 26 q 136 16 126 8 q 117 0 103 0 z"},"8":{"x_min":0,"x_max":503,"ha":503,"o":"m 252 -6 q 194 -6 146 14 q 99 35 72 80 q 44 126 44 200 l 44 212 q 44 289 74 334 q 104 380 153 399 q 113 415 88 454 q 64 492 64 556 q 64 622 89 660 q 114 699 156 715 q 199 731 252 731 q 306 731 348 715 q 391 699 416 660 q 440 622 440 556 q 440 492 416 454 q 391 415 352 399 q 401 380 430 334 q 460 289 460 212 l 460 200 q 460 126 432 80 q 404 35 358 14 q 311 -6 252 -6 z m 253 52 q 319 52 356 90 q 394 128 394 205 l 394 219 q 394 296 356 332 q 318 368 252 368 q 186 368 148 332 q 110 296 110 219 l 110 205 q 110 127 148 90 q 186 52 253 52 z m 252 427 q 310 427 343 456 q 376 485 376 551 q 376 616 343 644 q 310 673 252 673 q 194 673 162 644 q 129 616 129 551 q 129 485 162 456 q 194 427 252 427 z"},"\\":{"x_min":0,"x_max":351,"ha":351,"o":"m 299 0 q 291 0 284 4 q 277 8 275 17 l 27 718 q 26 722 26 727 q 26 739 34 746 q 42 754 54 754 q 61 754 67 751 q 73 748 75 740 l 324 33 q 326 31 326 29 q 326 27 326 25 q 326 14 318 7 q 310 0 299 0 z"},"e":{"x_min":0,"x_max":458,"ha":458,"o":"m 260 -7 q 197 -7 148 17 q 100 41 72 84 q 45 126 45 183 l 45 295 q 45 345 71 387 q 97 429 140 454 q 184 479 236 479 q 286 479 328 456 q 371 432 397 391 q 423 350 423 297 q 423 258 410 242 q 397 225 378 221 q 358 217 336 217 l 110 217 l 110 180 q 110 120 153 85 q 196 50 262 50 q 302 50 324 60 q 346 70 358 80 q 371 90 382 90 q 390 90 396 84 q 403 79 406 72 q 410 65 410 59 q 410 48 392 32 q 374 16 340 4 q 306 -7 260 -7 z m 110 265 l 310 265 q 340 265 350 272 q 360 278 360 299 q 360 331 344 360 q 329 389 300 407 q 272 425 235 425 q 201 425 172 408 q 144 392 127 364 q 110 337 110 303 z"},"b":{"x_min":0,"x_max":484,"ha":484,"o":"m 263 -7 q 216 -7 179 16 q 142 39 126 70 l 126 26 q 126 16 117 8 q 108 0 95 0 q 82 0 72 8 q 63 16 63 26 l 63 739 q 63 750 72 756 q 82 763 95 763 q 109 763 118 756 q 128 750 128 739 l 128 403 q 145 432 178 456 q 212 479 261 479 q 310 479 350 454 q 391 428 416 386 q 440 344 440 292 l 440 183 q 440 134 416 90 q 391 46 351 20 q 311 -7 263 -7 z m 251 53 q 285 53 313 72 q 341 90 358 120 q 375 150 375 183 l 375 292 q 375 324 358 353 q 341 382 313 400 q 285 419 250 419 q 220 419 192 404 q 164 388 146 360 q 128 332 128 292 l 128 152 q 128 137 144 114 q 161 90 189 72 q 217 53 251 53 z"},"%":{"x_min":0,"x_max":758,"ha":758,"o":"m 193 -26 q 182 -26 174 -19 q 167 -12 167 -2 q 167 5 169 10 l 550 757 q 556 769 571 769 q 580 769 590 762 q 599 754 599 742 q 599 735 596 729 l 217 -12 q 213 -19 206 -22 q 200 -26 193 -26 z m 164 351 q 112 351 76 377 q 41 403 41 465 l 41 617 q 41 679 76 705 q 112 731 164 731 q 200 731 228 720 q 256 709 272 684 q 288 659 288 617 l 288 465 q 288 424 272 399 q 256 374 228 362 q 200 351 164 351 z m 164 396 q 199 396 218 413 q 238 430 238 465 l 238 617 q 238 652 218 669 q 199 686 164 686 q 130 686 110 669 q 91 652 91 617 l 91 465 q 91 430 110 413 q 130 396 164 396 z m 593 -3 q 541 -3 506 23 q 470 49 470 111 l 470 263 q 470 325 506 351 q 541 377 593 377 q 629 377 657 366 q 685 355 701 330 q 717 305 717 263 l 717 111 q 717 69 701 44 q 685 19 657 8 q 629 -3 593 -3 z m 593 42 q 628 42 648 59 q 667 76 667 111 l 667 263 q 667 298 648 315 q 628 332 593 332 q 559 332 540 315 q 520 298 520 263 l 520 111 q 520 76 540 59 q 559 42 593 42 z"},"m":{"x_min":0,"x_max":779,"ha":779,"o":"m 94 0 q 81 0 72 8 q 62 16 62 26 l 62 449 q 62 460 72 466 q 81 473 94 473 q 107 473 116 466 q 125 460 125 449 l 125 403 q 142 432 176 456 q 209 479 258 479 q 308 479 345 451 q 382 423 400 379 q 426 430 468 454 q 509 479 552 479 q 595 479 634 457 q 672 435 696 394 q 720 352 720 292 l 720 26 q 720 16 710 8 q 701 0 687 0 q 674 0 664 8 q 655 16 655 26 l 655 292 q 655 334 638 362 q 621 390 595 404 q 569 419 541 419 q 512 419 486 404 q 459 389 442 362 q 424 334 424 296 l 424 25 q 424 12 414 6 q 403 0 391 0 q 380 0 370 6 q 359 12 359 25 l 359 295 q 359 331 344 359 q 328 387 302 403 q 276 419 245 419 q 216 419 189 404 q 162 389 144 361 q 127 333 127 292 l 127 26 q 127 16 118 8 q 108 0 94 0 z"},"#":{"x_min":0,"x_max":590,"ha":590,"o":"m 152 34 q 140 34 130 42 q 120 49 120 63 l 149 253 l 53 253 q 41 253 35 260 q 29 267 29 278 q 29 289 35 296 q 41 304 49 304 l 159 304 l 184 464 l 87 464 q 75 464 69 471 q 63 478 63 490 q 63 501 69 508 q 75 515 83 515 l 193 515 l 222 698 q 224 705 232 709 q 239 713 248 713 q 262 713 270 706 q 279 698 279 684 l 252 515 l 379 515 l 408 698 q 410 705 418 709 q 425 713 434 713 q 448 713 456 706 q 465 698 466 684 l 438 515 l 536 515 q 545 515 553 508 q 561 502 561 490 q 561 480 554 472 q 548 464 540 464 l 430 464 l 404 304 l 502 304 q 511 304 519 297 q 527 290 527 278 q 527 268 520 260 q 514 253 506 253 l 395 253 l 364 54 q 363 45 354 40 q 346 34 336 34 q 329 34 322 38 q 314 41 310 47 q 305 53 305 63 l 335 253 l 209 253 l 178 55 q 177 44 168 39 q 160 34 152 34 z m 218 304 l 344 304 l 370 464 l 244 464 z"},",":{"x_min":0,"x_max":171,"ha":171,"o":"m 73 -84 q 64 -84 56 -79 q 48 -74 48 -65 q 48 -59 50 -55 l 70 -3 q 56 2 48 14 q 40 26 40 40 q 40 60 53 74 q 66 87 85 87 q 103 87 117 74 q 131 62 131 40 q 131 37 130 32 q 130 27 126 16 q 122 5 114 -16 q 106 -37 92 -71 q 90 -78 84 -81 q 79 -84 73 -84 z"},"n":{"x_min":0,"x_max":494,"ha":494,"o":"m 94 0 q 81 0 72 8 q 62 16 62 26 l 62 449 q 62 460 72 466 q 81 473 94 473 q 107 473 116 466 q 125 460 125 449 l 125 403 q 141 432 175 456 q 209 479 259 479 q 307 479 348 454 q 388 428 412 386 q 436 344 436 292 l 436 26 q 436 13 426 6 q 416 0 403 0 q 392 0 382 6 q 371 13 371 26 l 371 292 q 371 324 354 353 q 337 382 309 400 q 281 419 247 419 q 217 419 190 404 q 162 388 144 360 q 127 332 127 292 l 127 26 q 127 16 118 8 q 108 0 94 0 z"},"h":{"x_min":0,"x_max":495,"ha":495,"o":"m 95 0 q 82 0 72 8 q 63 16 63 26 l 63 739 q 63 750 72 756 q 82 763 95 763 q 109 763 118 756 q 128 750 128 739 l 128 403 q 145 432 178 456 q 211 479 260 479 q 308 479 348 454 q 389 428 413 386 q 437 344 437 292 l 437 26 q 437 13 427 6 q 417 0 404 0 q 393 0 382 6 q 372 13 372 26 l 372 292 q 372 324 355 353 q 338 382 310 400 q 282 419 248 419 q 218 419 190 404 q 163 388 146 360 q 128 332 128 292 l 128 26 q 128 16 118 8 q 109 0 95 0 z"},"z":{"x_min":0,"x_max":401,"ha":401,"o":"m 50 0 q 38 0 31 8 q 24 16 24 26 q 24 32 27 39 q 30 46 34 51 l 278 416 l 58 416 q 48 416 40 424 q 33 432 33 444 q 33 456 40 464 q 48 473 58 473 l 340 473 q 351 473 358 466 q 366 459 366 447 q 366 435 357 423 l 112 58 l 353 58 q 364 58 371 50 q 378 41 378 28 q 378 17 371 8 q 364 0 353 0 z"},"B":{"x_min":0,"x_max":538,"ha":538,"o":"m 106 0 q 93 0 84 8 q 76 15 76 25 l 76 706 q 76 718 86 724 q 95 731 106 731 l 270 731 q 326 731 372 718 q 419 705 446 668 q 474 632 474 561 q 474 498 450 456 q 427 413 389 396 q 420 384 443 363 q 466 342 479 309 q 492 276 492 224 l 492 206 q 492 130 466 85 q 440 40 395 20 q 350 0 295 0 z m 142 61 l 286 61 q 352 61 389 96 q 426 132 426 209 l 426 226 q 426 304 389 336 q 352 368 286 368 l 142 368 z m 142 425 l 272 425 q 342 425 375 454 q 408 483 408 554 q 408 601 390 626 q 372 651 341 660 q 310 670 268 670 l 142 670 z"},"K":{"x_min":0,"x_max":523,"ha":523,"o":"m 109 0 q 96 0 86 6 q 76 13 76 26 l 76 707 q 76 720 86 726 q 96 731 109 731 q 121 731 132 726 q 142 720 142 707 l 142 353 l 431 721 q 438 731 452 731 q 460 731 468 726 q 477 721 482 714 q 488 706 488 697 q 488 694 487 690 q 486 685 483 682 l 268 415 l 514 45 q 518 39 518 32 q 518 23 512 16 q 507 8 498 4 q 490 -1 480 -1 q 473 -1 466 2 q 460 6 455 13 l 224 360 l 142 256 l 142 26 q 142 13 132 6 q 121 0 109 0 z"},"R":{"x_min":0,"x_max":528,"ha":528,"o":"m 458 -1 q 447 -1 438 10 q 429 21 424 33 l 269 333 l 142 333 l 142 26 q 142 13 132 6 q 121 0 109 0 q 96 0 86 6 q 76 13 76 26 l 76 707 q 76 717 83 724 q 90 730 101 731 l 278 731 q 337 731 386 713 q 435 695 464 652 q 494 610 494 534 q 494 472 474 432 q 453 392 418 370 q 382 349 338 341 l 492 45 q 495 42 496 38 q 496 35 496 32 q 496 24 490 16 q 485 8 476 4 q 467 -1 458 -1 z m 142 390 l 278 390 q 345 390 386 422 q 428 455 428 531 q 428 606 386 638 q 345 670 278 670 l 142 670 z"},"T":{"x_min":0,"x_max":477,"ha":477,"o":"m 239 0 q 226 0 216 6 q 206 13 206 26 l 206 669 l 38 669 q 26 669 20 678 q 13 688 13 700 q 13 712 20 722 q 26 731 38 731 l 439 731 q 452 731 458 722 q 464 713 464 701 q 464 689 458 679 q 452 669 439 669 l 272 669 l 272 26 q 272 13 262 6 q 251 0 239 0 z"},"P":{"x_min":0,"x_max":527,"ha":527,"o":"m 109 0 q 96 0 86 6 q 76 13 76 26 l 76 707 q 76 717 84 724 q 91 730 104 731 l 288 731 q 346 731 393 710 q 440 689 467 642 q 494 596 494 519 l 494 509 q 494 431 466 384 q 439 338 392 317 q 344 296 286 296 l 142 296 l 142 26 q 142 13 132 6 q 121 0 109 0 z m 142 353 l 286 353 q 353 353 390 390 q 428 428 428 506 l 428 518 q 428 596 390 633 q 353 670 286 670 l 142 670 z"},"|":{"x_min":0,"x_max":202,"ha":202,"o":"m 101 -21 q 87 -21 78 -14 q 68 -6 68 4 l 68 744 q 68 754 78 761 q 87 768 101 768 q 114 768 124 761 q 134 754 134 744 l 134 4 q 134 -6 124 -14 q 114 -21 101 -21 z"},"t":{"x_min":0,"x_max":295,"ha":295,"o":"m 219 0 q 142 0 101 35 q 60 70 60 147 l 60 674 q 60 685 70 692 q 81 698 92 698 q 105 698 115 692 q 125 685 125 674 l 125 473 l 255 473 q 265 473 271 465 q 277 457 277 446 q 277 435 271 427 q 265 419 255 419 l 125 419 l 125 147 q 125 98 146 78 q 167 59 219 59 l 247 59 q 261 59 268 50 q 276 42 276 30 q 276 18 268 9 q 261 0 247 0 z"},"M":{"x_min":0,"x_max":668,"ha":668,"o":"m 109 0 q 96 0 86 6 q 76 13 76 26 l 76 699 q 76 717 86 724 q 96 731 109 731 q 121 731 130 724 q 140 718 148 708 q 156 697 162 685 l 334 353 l 506 685 q 513 697 520 708 q 528 718 538 724 q 548 731 559 731 q 573 731 582 724 q 592 717 592 699 l 592 26 q 592 13 582 6 q 572 0 559 0 q 547 0 536 6 q 526 13 526 26 l 526 588 l 360 274 q 354 263 347 258 q 340 253 333 253 q 327 253 320 258 q 313 262 307 274 l 142 591 l 142 26 q 142 13 132 6 q 121 0 109 0 z"},"g":{"x_min":0,"x_max":454,"ha":454,"o":"m 230 -232 q 171 -232 126 -216 q 80 -199 54 -170 q 27 -140 27 -99 q 27 -55 53 -29 q 79 -3 112 10 q 88 19 72 34 q 57 50 57 79 q 57 107 71 124 q 85 140 107 151 q 80 173 66 206 q 52 238 52 277 l 52 315 q 52 363 73 400 q 94 437 133 458 q 172 479 224 479 q 259 479 289 468 q 319 457 341 437 q 356 468 375 484 q 394 500 412 500 q 427 500 434 492 q 442 483 442 474 q 442 465 437 460 q 432 454 425 452 q 413 450 398 441 q 382 432 369 409 q 383 390 390 366 q 397 342 397 315 l 397 277 q 397 230 375 192 q 353 154 314 132 q 274 111 223 111 q 180 111 146 128 q 135 122 125 114 q 115 105 115 89 q 115 67 138 57 q 161 47 196 43 q 231 39 270 34 q 310 30 346 18 q 381 6 404 -19 q 426 -44 426 -90 q 426 -137 400 -168 q 375 -200 331 -216 q 287 -232 230 -232 z m 229 -183 q 292 -183 328 -158 q 363 -133 363 -92 q 363 -60 344 -44 q 324 -27 294 -20 q 265 -13 234 -10 q 202 -7 179 -4 q 144 -15 117 -36 q 90 -57 90 -93 q 90 -133 127 -158 q 164 -183 229 -183 z m 225 160 q 276 160 304 194 q 333 227 333 277 l 333 315 q 333 364 304 397 q 276 430 224 430 q 172 430 144 397 q 115 364 115 315 l 115 278 q 115 228 144 194 q 173 160 225 160 z"},"j":{"x_min":0,"x_max":191,"ha":191,"o":"m -3 -232 q -21 -232 -29 -223 q -37 -214 -37 -203 q -37 -189 -28 -181 q -20 -173 -9 -173 q 23 -173 38 -156 q 54 -139 58 -110 q 63 -80 63 -43 l 63 449 q 63 460 72 466 q 81 473 95 473 q 109 473 118 466 q 128 460 128 449 l 128 -43 q 128 -98 115 -141 q 102 -184 73 -208 q 44 -232 -3 -232 z m 95 613 q 77 613 64 626 q 51 638 51 655 q 51 672 64 684 q 77 696 95 696 q 113 696 126 684 q 139 672 139 655 q 139 638 126 626 q 113 613 95 613 z"},"i":{"x_min":0,"x_max":189,"ha":189,"o":"m 94 0 q 81 0 72 8 q 62 16 62 26 l 62 449 q 62 460 72 466 q 81 473 94 473 q 108 473 118 466 q 127 460 127 449 l 127 26 q 127 16 118 8 q 108 0 94 0 z m 94 613 q 76 613 63 626 q 50 638 50 655 q 50 672 63 684 q 76 696 94 696 q 113 696 126 684 q 138 672 138 655 q 138 638 126 626 q 113 613 94 613 z"},"y":{"x_min":0,"x_max":420,"ha":420,"o":"m 45 -232 q 32 -232 24 -226 q 15 -219 15 -203 q 15 -191 20 -182 q 24 -173 35 -173 q 59 -173 81 -158 q 103 -143 122 -116 q 141 -88 156 -54 q 171 -19 180 20 l 17 439 q 14 444 14 448 q 14 457 20 464 q 27 471 36 475 q 46 479 54 479 q 62 479 68 476 q 75 472 77 465 l 214 97 l 343 465 q 346 472 352 476 q 358 479 365 479 q 373 479 382 475 q 392 471 398 464 q 405 457 405 447 q 405 442 403 439 l 248 19 q 233 -21 216 -65 q 199 -109 176 -146 q 154 -184 122 -208 q 90 -232 45 -232 z"},"@":{"x_min":0,"x_max":719,"ha":719,"o":"m 330 -103 q 277 -103 228 -84 q 178 -65 139 -26 q 100 13 78 74 q 55 134 55 217 q 55 311 88 388 q 120 466 190 512 q 259 558 369 558 q 468 558 537 520 q 606 483 642 412 q 677 340 677 236 q 677 183 666 136 q 654 90 628 61 q 602 32 556 32 q 519 32 492 52 q 465 71 459 97 q 433 70 406 56 q 380 41 336 41 q 303 41 274 52 q 245 62 228 86 q 211 110 211 150 q 211 196 235 220 q 259 245 303 254 q 347 263 407 263 l 450 263 l 450 282 q 450 326 426 346 q 403 367 352 367 q 320 367 302 361 q 285 355 275 348 q 265 342 257 342 q 251 342 246 347 q 241 352 238 359 q 236 366 236 370 q 236 384 256 395 q 275 406 304 412 q 333 419 362 419 q 406 419 438 404 q 469 389 486 360 q 504 332 504 291 l 504 125 q 507 102 524 88 q 541 75 560 75 q 581 75 594 90 q 608 104 615 128 q 622 151 624 178 q 627 204 627 229 q 627 360 564 434 q 500 509 367 509 q 292 509 242 486 q 192 462 162 420 q 131 379 118 327 q 104 275 104 218 q 104 165 116 116 q 128 66 155 28 q 182 -11 226 -34 q 271 -56 337 -56 q 381 -56 408 -48 q 436 -40 452 -32 q 469 -25 478 -25 q 488 -25 494 -32 q 499 -40 499 -47 q 499 -57 484 -67 q 469 -77 444 -85 q 418 -93 388 -98 q 358 -103 330 -103 z m 343 85 q 377 85 401 98 q 425 111 438 130 q 452 149 452 167 l 452 222 l 411 222 q 370 222 338 218 q 305 213 286 198 q 267 182 267 150 q 267 116 289 100 q 311 85 343 85 z"},".":{"x_min":0,"x_max":171,"ha":171,"o":"m 86 -6 q 66 -6 53 8 q 40 22 40 40 q 40 60 53 74 q 66 87 86 87 q 104 87 118 74 q 131 60 131 40 q 131 22 118 8 q 104 -6 86 -6 z"},"p":{"x_min":0,"x_max":484,"ha":484,"o":"m 95 -232 q 82 -232 72 -224 q 63 -216 63 -206 l 63 449 q 63 460 72 466 q 82 473 95 473 q 108 473 117 466 q 126 460 126 449 l 126 403 q 143 432 177 456 q 211 479 260 479 q 310 479 350 454 q 391 428 416 386 q 440 344 440 292 l 440 183 q 440 134 416 90 q 391 46 351 20 q 311 -7 263 -7 q 217 -7 181 16 q 145 39 128 70 l 128 -206 q 128 -216 118 -224 q 109 -232 95 -232 z m 251 53 q 284 53 312 72 q 340 90 358 120 q 375 150 375 183 l 375 292 q 375 324 358 353 q 341 382 312 400 q 284 419 249 419 q 219 419 192 404 q 164 388 146 360 q 128 332 128 292 l 128 152 q 128 137 144 114 q 160 90 188 72 q 216 53 251 53 z"},"X":{"x_min":0,"x_max":483,"ha":483,"o":"m 63 -1 q 54 -1 44 4 q 35 8 29 15 q 23 22 23 31 q 23 38 28 47 l 200 366 l 31 683 q 25 695 25 704 q 25 713 30 720 q 36 726 44 730 q 53 733 63 733 q 76 733 84 722 q 92 711 98 699 l 241 424 l 385 699 q 391 711 400 722 q 408 733 420 733 q 430 733 438 730 q 447 726 452 720 q 458 713 458 704 q 458 695 452 683 l 282 366 l 455 47 q 460 38 460 31 q 460 22 454 15 q 448 8 439 4 q 430 -1 420 -1 q 410 -1 402 10 q 394 20 389 30 l 241 310 l 94 30 q 89 20 82 10 q 74 -1 63 -1 z"},"*":{"x_min":0,"x_max":435,"ha":435,"o":"m 124 381 q 118 381 110 384 q 103 387 98 394 q 93 400 93 408 q 93 417 99 424 l 178 530 l 52 568 q 43 570 39 577 q 35 584 35 592 q 35 603 42 612 q 50 621 62 621 q 63 621 66 621 q 68 621 70 620 l 196 576 l 191 706 q 191 719 199 725 q 207 731 218 731 q 228 731 236 725 q 244 719 244 706 l 240 575 l 366 620 q 369 621 374 621 q 385 621 392 611 q 400 601 400 591 q 400 583 396 576 q 391 570 382 568 l 257 532 l 338 423 q 343 418 343 409 q 343 397 334 389 q 324 381 312 381 q 308 381 302 383 q 297 385 293 391 l 218 503 l 141 390 q 138 385 134 383 q 129 381 124 381 z"},"Y":{"x_min":0,"x_max":529,"ha":529,"o":"m 264 0 q 252 0 242 6 q 231 13 231 26 l 231 280 q 231 285 230 288 l 23 685 q 20 691 19 696 q 18 700 18 703 q 18 712 24 718 q 29 724 38 728 q 46 731 54 731 q 62 731 68 726 q 75 721 80 711 l 264 346 l 449 711 q 455 721 462 726 q 468 731 475 731 q 484 731 492 728 q 500 724 506 718 q 511 712 511 703 q 511 700 510 696 q 509 691 507 685 l 299 288 q 297 285 297 280 l 297 26 q 297 13 287 6 q 277 0 264 0 z"},"c":{"x_min":0,"x_max":412,"ha":412,"o":"m 240 -7 q 174 -7 131 18 q 88 43 67 86 q 46 129 46 183 l 46 290 q 46 343 66 386 q 87 429 130 454 q 174 479 240 479 q 282 479 314 468 q 345 458 362 443 q 380 428 380 414 q 380 408 376 400 q 373 393 366 388 q 360 382 352 382 q 343 382 332 392 q 320 401 300 410 q 280 419 243 419 q 178 419 144 384 q 111 350 111 290 l 111 183 q 111 122 144 88 q 178 53 244 53 q 282 53 303 62 q 324 72 336 82 q 347 91 357 91 q 366 91 372 86 q 379 81 382 74 q 386 67 386 59 q 386 46 368 30 q 350 15 318 4 q 285 -7 240 -7 z"},"!":{"x_min":0,"x_max":202,"ha":202,"o":"m 101 165 q 91 165 83 171 q 75 177 75 188 q 75 270 72 358 q 69 447 66 535 q 63 623 63 705 q 63 724 74 734 q 85 744 101 744 q 116 744 128 734 q 139 724 139 705 q 139 623 136 535 q 134 447 130 358 q 127 270 127 188 q 127 177 118 171 q 109 165 101 165 z m 102 -6 q 82 -6 69 8 q 56 22 56 40 q 56 60 69 74 q 82 87 102 87 q 120 87 134 74 q 147 60 147 40 q 147 22 134 8 q 120 -6 102 -6 z"},"/":{"x_min":0,"x_max":474,"ha":474,"o":"m 47 -26 q 36 -26 28 -19 q 21 -12 21 -2 q 21 5 24 10 l 405 757 q 411 769 425 769 q 435 769 444 762 q 453 754 453 742 q 453 735 450 729 l 71 -12 q 67 -19 60 -22 q 54 -26 47 -26 z"},"[":{"x_min":0,"x_max":303,"ha":303,"o":"m 99 -21 q 87 -21 78 -14 q 68 -7 68 4 l 68 743 q 68 755 78 762 q 87 768 99 768 l 260 768 q 271 768 278 759 q 284 750 284 739 q 284 726 278 717 q 271 708 260 708 l 134 708 l 134 39 l 260 39 q 271 39 278 30 q 284 22 284 9 q 284 -3 278 -12 q 271 -21 260 -21 z"},"6":{"x_min":0,"x_max":519,"ha":519,"o":"m 267 -6 q 209 -6 162 15 q 114 36 86 83 q 59 130 59 208 l 59 518 q 59 595 87 642 q 115 689 162 710 q 209 731 269 731 q 319 731 358 717 q 396 703 422 678 q 448 654 462 624 q 475 593 475 560 q 475 544 466 537 q 458 530 444 530 q 430 530 420 536 q 409 542 409 557 q 409 592 390 617 q 371 642 338 656 q 306 670 267 670 q 200 670 162 633 q 125 596 125 518 l 125 365 q 150 400 190 416 q 229 431 276 431 q 331 431 376 413 q 421 395 448 352 q 475 308 475 232 l 475 208 q 475 130 447 83 q 419 36 372 15 q 326 -6 267 -6 z m 267 53 q 334 53 372 90 q 409 127 409 205 l 409 229 q 409 308 372 341 q 334 374 267 374 q 202 374 164 344 q 125 313 125 238 l 125 205 q 125 127 162 90 q 200 53 267 53 z"},"r":{"x_min":0,"x_max":330,"ha":330,"o":"m 94 0 q 81 0 72 8 q 62 16 62 26 l 62 449 q 62 460 72 466 q 81 473 94 473 q 107 473 116 466 q 125 460 125 449 l 125 400 q 136 420 155 438 q 174 456 200 468 q 226 479 259 479 l 294 479 q 305 479 312 470 q 320 462 320 449 q 320 437 312 428 q 305 419 294 419 l 259 419 q 226 419 196 402 q 165 384 146 352 q 127 319 127 273 l 127 26 q 127 16 118 8 q 108 0 94 0 z"},"2":{"x_min":0,"x_max":475,"ha":475,"o":"m 65 0 q 55 0 44 7 q 34 14 34 26 l 34 123 q 34 164 58 199 q 83 234 122 265 q 160 296 204 326 q 247 356 285 388 q 323 421 348 457 q 372 493 372 537 q 372 569 358 599 q 343 629 313 649 q 283 669 237 669 q 186 669 151 640 q 116 610 116 551 q 116 541 107 532 q 98 524 81 524 q 66 524 58 533 q 51 542 51 565 q 51 614 76 651 q 101 688 144 710 q 186 731 239 731 q 297 731 342 706 q 386 680 412 636 q 438 593 438 539 q 438 486 414 443 q 389 400 351 365 q 313 330 270 300 q 227 270 189 242 q 151 214 126 185 q 102 156 102 123 l 102 61 l 421 61 q 431 61 438 52 q 445 44 445 31 q 445 19 438 10 q 431 0 421 0 z"},"{":{"x_min":0,"x_max":309,"ha":309,"o":"m 256 -20 q 206 -20 164 -1 q 122 18 96 53 q 70 88 70 133 q 70 143 72 164 q 74 186 78 212 q 81 239 84 265 q 86 291 88 310 q 90 329 90 336 q 90 349 81 352 q 72 355 60 356 q 48 358 39 364 q 30 369 30 385 q 30 400 39 406 q 48 411 60 412 q 72 414 81 418 q 90 421 90 434 q 90 441 87 464 q 84 486 80 514 q 76 542 73 567 q 70 592 70 604 q 70 636 85 666 q 100 695 126 718 q 152 741 186 754 q 219 768 256 768 q 275 768 283 759 q 291 750 291 738 q 291 728 284 718 q 278 709 266 709 q 232 709 202 694 q 172 679 154 654 q 136 628 136 596 q 136 585 139 561 q 142 537 146 509 q 150 481 153 458 q 156 436 156 429 q 156 411 143 398 q 130 386 121 384 q 131 381 144 370 q 156 358 156 340 q 156 331 153 304 q 150 276 146 242 q 142 208 139 178 q 136 149 136 136 q 136 108 150 89 q 164 70 185 59 q 206 48 228 44 q 250 39 266 39 q 276 39 282 34 q 287 29 289 22 q 291 16 291 10 q 291 -4 281 -12 q 271 -20 256 -20 z"},"9":{"x_min":0,"x_max":519,"ha":519,"o":"m 250 -6 q 200 -6 162 8 q 123 22 97 47 q 71 72 58 102 q 44 132 44 165 q 44 182 52 189 q 61 196 75 196 q 89 196 100 190 q 110 183 110 168 q 110 133 129 108 q 148 83 180 69 q 213 55 252 55 q 319 55 356 92 q 394 129 394 208 l 394 361 q 369 326 330 310 q 290 294 243 294 q 188 294 143 312 q 98 331 71 374 q 44 417 44 494 l 44 518 q 44 595 72 642 q 100 689 146 710 q 193 731 252 731 q 310 731 358 710 q 405 689 432 642 q 460 595 460 518 l 460 208 q 460 130 432 83 q 404 36 357 15 q 310 -6 250 -6 z m 252 351 q 317 351 356 382 q 394 414 394 487 l 394 520 q 394 599 356 636 q 319 673 252 673 q 185 673 148 636 q 110 599 110 520 l 110 496 q 110 417 148 384 q 185 351 252 351 z"}," ":{"x_min":0,"x_max":200,"ha":200,"o":""},"I":{"x_min":0,"x_max":218,"ha":218,"o":"m 109 0 q 96 0 86 6 q 76 13 76 26 l 76 707 q 76 719 86 725 q 96 731 109 731 q 121 731 132 725 q 142 719 142 707 l 142 26 q 142 13 132 6 q 121 0 109 0 z"},"H":{"x_min":0,"x_max":573,"ha":573,"o":"m 109 0 q 96 0 86 6 q 76 13 76 26 l 76 707 q 76 719 86 725 q 96 731 109 731 q 121 731 132 725 q 142 719 142 707 l 142 408 l 431 408 l 431 707 q 431 719 441 725 q 451 731 464 731 q 476 731 486 725 q 497 719 497 707 l 497 26 q 497 13 486 6 q 476 0 464 0 q 451 0 441 6 q 431 13 431 26 l 431 351 l 142 351 l 142 26 q 142 13 132 6 q 121 0 109 0 z"},"4":{"x_min":0,"x_max":444,"ha":444,"o":"m 320 0 q 308 0 298 6 q 287 13 287 26 l 287 172 l 33 172 q 21 172 14 180 q 7 187 7 199 q 7 204 8 208 q 10 212 11 216 l 262 711 q 268 722 276 726 q 285 731 293 731 q 300 731 308 728 q 315 725 320 719 q 325 713 325 704 q 325 699 322 691 l 92 235 l 287 235 l 287 428 q 287 441 298 447 q 308 453 320 453 q 333 453 343 447 q 353 441 353 428 l 353 235 l 408 235 q 421 235 428 226 q 434 216 434 204 q 434 192 426 182 q 419 172 408 172 l 353 172 l 353 26 q 353 13 343 6 q 333 0 320 0 z"},"~":{"x_min":0,"x_max":403,"ha":403,"o":"m 273 215 q 246 215 226 224 q 206 233 186 242 q 166 250 139 250 q 118 250 104 242 q 91 234 82 226 q 74 218 66 218 q 60 218 56 222 q 51 226 49 232 q 47 238 47 243 q 47 258 56 268 q 65 278 79 286 q 93 293 108 297 q 123 301 135 301 q 161 301 181 292 q 201 284 221 275 q 241 266 267 266 q 289 266 301 274 q 313 281 320 288 q 328 295 337 295 q 344 295 348 291 q 352 287 354 282 q 357 277 357 272 q 357 256 348 246 q 339 235 326 228 q 312 221 298 218 q 283 215 273 215 z"},"D":{"x_min":0,"x_max":560,"ha":560,"o":"m 106 0 q 93 0 84 7 q 76 14 76 25 l 76 707 q 76 717 84 724 q 93 731 106 731 l 283 731 q 342 731 390 710 q 437 689 464 642 q 492 595 492 518 l 492 214 q 492 136 464 89 q 437 42 390 21 q 342 0 283 0 z m 142 61 l 283 61 q 350 61 388 98 q 426 135 426 214 l 426 518 q 426 596 388 633 q 350 670 283 670 l 142 670 z"},"^":{"x_min":0,"x_max":268,"ha":268,"o":"m 21 592 q 13 592 6 600 q 0 608 0 618 q 0 624 4 630 q 7 636 13 640 l 117 696 q 126 701 134 701 q 143 701 151 696 l 255 640 q 262 637 265 630 q 268 624 268 617 q 268 607 262 600 q 256 593 248 593 q 246 593 243 594 q 240 595 238 596 l 134 651 l 30 595 q 28 594 26 593 q 23 592 21 592 z"},"0":{"x_min":0,"x_max":533,"ha":533,"o":"m 266 -6 q 208 -6 161 15 q 114 36 86 83 q 59 130 59 208 l 59 518 q 59 595 86 642 q 114 689 160 710 q 207 731 266 731 q 325 731 372 710 q 419 689 447 642 q 475 595 475 518 l 475 208 q 475 130 447 83 q 419 36 372 15 q 325 -6 266 -6 z m 266 55 q 333 55 371 92 q 409 129 409 208 l 409 518 q 409 596 371 633 q 333 670 266 670 q 199 670 162 633 q 125 596 125 518 l 125 208 q 125 129 162 92 q 199 55 266 55 z m 267 325 q 251 325 240 336 q 230 347 230 362 q 230 378 240 388 q 251 398 267 398 q 283 398 293 388 q 303 378 303 362 q 303 347 293 336 q 283 325 267 325 z"},"F":{"x_min":0,"x_max":496,"ha":496,"o":"m 109 0 q 96 0 86 6 q 76 12 76 25 l 76 706 q 76 718 86 724 q 95 731 106 731 l 460 731 q 473 731 479 722 q 485 712 485 702 q 485 689 478 680 q 472 670 460 670 l 142 670 l 142 395 l 300 395 q 311 395 318 386 q 324 377 324 365 q 324 356 318 347 q 313 338 300 338 l 142 338 l 142 25 q 142 12 132 6 q 121 0 109 0 z"},"`":{"x_min":0,"x_max":155,"ha":155,"o":""},"k":{"x_min":0,"x_max":455,"ha":455,"o":"m 95 0 q 82 0 72 8 q 63 16 63 26 l 63 739 q 63 750 72 756 q 82 763 95 763 q 109 763 118 756 q 128 750 128 739 l 128 252 l 372 469 q 380 475 387 475 q 395 475 402 471 q 410 467 415 460 q 420 453 420 444 q 420 439 418 434 q 417 430 413 426 l 266 297 l 439 44 q 443 38 443 30 q 443 23 438 15 q 433 7 424 2 q 416 -2 408 -2 q 396 -2 388 9 l 220 256 l 128 175 l 128 26 q 128 16 118 8 q 109 0 95 0 z"},"u":{"x_min":0,"x_max":496,"ha":496,"o":"m 249 -7 q 196 -7 153 19 q 110 45 84 88 q 58 132 58 181 l 58 448 q 58 457 68 465 q 78 473 91 473 q 104 473 114 465 q 123 457 123 448 l 123 181 q 123 148 140 119 q 157 90 185 72 q 213 53 248 53 q 284 53 312 71 q 340 89 356 118 q 373 148 373 181 l 373 449 q 373 459 383 466 q 393 473 406 473 q 421 473 430 466 q 438 459 438 449 l 438 181 q 438 130 412 88 q 387 45 344 19 q 300 -7 249 -7 z"},"]":{"x_min":0,"x_max":303,"ha":303,"o":"m 43 -21 q 32 -21 26 -12 q 19 -3 19 9 q 19 22 26 30 q 32 39 43 39 l 169 39 l 169 708 l 43 708 q 32 708 26 717 q 19 726 19 739 q 19 750 26 759 q 32 768 43 768 l 204 768 q 217 768 226 762 q 235 755 235 743 l 235 4 q 235 -7 226 -14 q 216 -21 204 -21 z"},"U":{"x_min":0,"x_max":563,"ha":563,"o":"m 281 -6 q 222 -6 175 15 q 128 36 100 83 q 72 130 72 208 l 72 707 q 72 719 82 725 q 92 731 105 731 q 118 731 128 725 q 138 719 138 707 l 138 208 q 138 129 176 92 q 214 55 281 55 q 349 55 387 92 q 425 129 425 208 l 425 707 q 425 719 435 725 q 445 731 458 731 q 471 731 481 725 q 491 719 491 707 l 491 208 q 491 130 464 83 q 436 36 388 15 q 340 -6 281 -6 z"},"o":{"x_min":0,"x_max":469,"ha":469,"o":"m 234 -7 q 183 -7 140 20 q 97 46 70 90 q 44 133 44 183 l 44 292 q 44 342 70 384 q 96 427 139 453 q 182 479 234 479 q 285 479 328 454 q 372 428 398 386 q 424 344 424 292 l 424 183 q 424 134 398 90 q 372 46 328 20 q 285 -7 234 -7 z m 234 53 q 269 53 297 72 q 325 90 342 120 q 359 150 359 183 l 359 292 q 359 324 342 353 q 326 382 298 400 q 269 419 234 419 q 199 419 171 400 q 143 382 126 353 q 109 324 109 292 l 109 183 q 109 150 126 120 q 143 90 172 72 q 200 53 234 53 z"},"N":{"x_min":0,"x_max":573,"ha":573,"o":"m 109 0 q 96 0 86 6 q 76 13 76 26 l 76 706 q 76 720 86 726 q 96 731 109 731 q 121 731 130 724 q 139 718 147 708 q 155 698 161 685 l 431 153 l 431 707 q 431 720 441 726 q 451 731 464 731 q 476 731 486 726 q 497 720 497 707 l 497 26 q 497 13 486 6 q 476 0 464 0 q 450 0 439 12 q 428 24 420 38 l 142 579 l 142 26 q 142 13 132 6 q 121 0 109 0 z"},"+":{"x_min":0,"x_max":434,"ha":434,"o":"m 218 56 q 206 56 197 63 q 188 70 188 80 l 188 212 l 57 212 q 46 212 39 220 q 32 228 32 240 q 32 253 39 262 q 46 270 57 270 l 188 270 l 188 400 q 188 410 197 418 q 206 426 218 426 q 231 426 238 418 q 246 410 246 400 l 246 270 l 377 270 q 386 270 394 262 q 402 253 402 240 q 402 228 394 220 q 386 212 377 212 l 246 212 l 246 80 q 246 70 238 63 q 231 56 218 56 z"},"G":{"x_min":0,"x_max":542,"ha":542,"o":"m 276 -6 q 218 -6 171 15 q 124 36 96 83 q 69 130 69 208 l 69 518 q 69 595 96 642 q 124 689 170 710 q 217 731 275 731 q 339 731 386 708 q 433 686 459 647 q 485 608 485 558 q 485 539 476 532 q 467 524 452 524 q 439 524 430 530 q 420 536 419 549 q 414 588 397 615 q 380 642 350 656 q 320 670 276 670 q 209 670 172 633 q 135 596 135 518 l 135 208 q 135 130 172 92 q 209 55 276 55 q 343 55 381 92 q 419 130 419 208 l 419 327 l 285 327 q 273 327 266 336 q 260 345 260 356 q 260 366 266 375 q 273 384 285 384 l 460 384 q 472 384 478 376 q 485 369 485 358 l 485 208 q 485 130 457 83 q 429 36 382 15 q 335 -6 276 -6 z"},"q":{"x_min":0,"x_max":484,"ha":484,"o":"m 389 -232 q 376 -232 366 -224 q 356 -216 356 -206 l 356 70 q 341 39 304 16 q 267 -7 222 -7 q 175 -7 134 20 q 93 46 69 90 q 45 134 45 183 l 45 292 q 45 344 69 386 q 93 428 134 454 q 175 479 224 479 q 274 479 308 456 q 342 432 359 403 l 359 449 q 359 460 368 466 q 377 473 390 473 q 404 473 412 466 q 421 460 421 449 l 421 -206 q 421 -216 412 -224 q 404 -232 389 -232 z m 234 53 q 269 53 296 72 q 324 90 340 114 q 356 137 356 152 l 356 292 q 356 332 338 360 q 321 388 293 404 q 265 419 235 419 q 201 419 172 400 q 144 382 127 353 q 110 324 110 292 l 110 183 q 110 150 127 120 q 144 90 172 72 q 201 53 234 53 z"},"d":{"x_min":0,"x_max":484,"ha":484,"o":"m 222 -7 q 175 -7 134 20 q 93 46 69 90 q 45 134 45 183 l 45 292 q 45 344 69 386 q 93 428 134 454 q 175 479 224 479 q 273 479 306 456 q 340 432 356 403 l 356 739 q 356 750 366 756 q 376 763 389 763 q 404 763 412 756 q 421 750 421 739 l 421 26 q 421 16 412 8 q 404 0 389 0 q 377 0 368 8 q 359 16 359 26 l 359 70 q 343 39 306 16 q 268 -7 222 -7 z m 233 53 q 269 53 296 72 q 324 90 340 114 q 356 137 356 152 l 356 292 q 356 332 338 360 q 320 388 292 404 q 264 419 234 419 q 200 419 172 400 q 144 382 127 353 q 110 324 110 292 l 110 183 q 110 150 127 120 q 144 90 172 72 q 200 53 233 53 z"},"1":{"x_min":0,"x_max":234,"ha":234,"o":"m 132 0 q 119 0 109 6 q 99 13 99 26 l 99 619 l 59 554 q 55 548 50 545 q 45 542 40 542 q 29 542 22 551 q 14 560 14 571 q 14 578 19 588 q 24 597 29 601 l 111 717 q 116 723 121 728 q 126 732 136 732 q 147 732 156 726 q 165 719 165 707 l 165 26 q 165 13 154 6 q 144 0 132 0 z"},"5":{"x_min":0,"x_max":475,"ha":475,"o":"m 235 -6 q 170 -6 123 18 q 76 41 52 80 q 27 118 27 164 q 27 183 36 190 q 45 197 60 197 q 78 197 86 189 q 93 181 93 169 q 93 133 112 108 q 131 82 163 68 q 195 55 234 55 q 301 55 339 92 q 377 129 377 206 l 377 225 q 377 300 339 336 q 301 373 236 373 l 96 373 q 76 373 70 380 q 63 388 63 398 q 63 404 64 408 q 64 413 64 418 l 84 706 q 85 717 90 724 q 95 731 105 731 l 385 731 q 396 731 402 722 q 407 712 407 701 q 407 689 402 680 q 396 670 385 670 l 143 670 l 126 430 l 236 430 q 294 430 341 410 q 388 390 416 345 q 443 300 443 225 l 443 206 q 443 129 416 82 q 388 36 340 15 q 293 -6 235 -6 z"}}}
